# xmcd
#
# Track frame offsets:
# 150
# 13604
# 27886
# 43663
# 56138
# 68725
# 92609
# 106280
# 117419
# 132842
# 148939
# 162868
#
# Disc length: 2309 seconds
#
#
# Revision: 0
# Processed by: cddbd v1.4PL0 Copyright (c) Steve Scherf et al.
# Submitted via: FreeRIP 2.40 
#
DISCID=a309030c
DTITLE=The Pointer Brothers - Gil-T Heartless and the Backstabbing Bastard Boys
DYEAR=2003
DGENRE=Folk/Rock
TTITLE0=Home on Wheels
TTITLE1=The Hey Boys
TTITLE2=Katie's Song
TTITLE3=Little Old Town
TTITLE4=Shine
TTITLE5=Spare Room Door
TTITLE6=Talk Back TremBlin Lips
TTITLE7=Silver Balls
TTITLE8=Joe Henry Highway
TTITLE9=Tears
TTITLE10=One More Shot
TTITLE11=Whiskey Before Breakfast At The Pit
EXTD=House Band at "The Pit" In Dawson City Yukpn
EXTT0=
EXTT1=
EXTT2=
EXTT3=
EXTT4=
EXTT5=
EXTT6=
EXTT7=
EXTT8=
EXTT9=
EXTT10=
EXTT11=
PLAYORDER=
